<svg xmlns="http://www.w3.org/2000/svg" viewBox="0 0 680 240" width="680" height="240" font-family="ui-monospace, SFMono-Regular, Menlo, Consolas, 'DejaVu Sans Mono', monospace" role="img" aria-label="xenv — encrypted env, one file per key">
  <defs>
    <linearGradient id="neon" x1="0" y1="0" x2="1" y2="1">
      <stop offset="0" stop-color="#FF12A6"/><stop offset="1" stop-color="#FF6ED8"/>
    </linearGradient>
    <filter id="glow" x="-45%" y="-45%" width="190%" height="190%">
      <feGaussianBlur stdDeviation="4" result="b"/>
      <feMerge><feMergeNode in="b"/><feMergeNode in="SourceGraphic"/></feMerge>
    </filter>
  </defs>

  <rect x="6" y="6" width="668" height="228" rx="26" fill="#0B0E14" stroke="#2A2F3A" stroke-width="2"/>
  <text x="152" y="52" font-size="16" letter-spacing="1" fill="#3A2740">xenv:v4:&lt;salt&gt;:&lt;iter&gt;:&lt;iv&gt;:&lt;ct&gt;:&lt;mac&gt;</text>

  <!-- metal skull &amp; crossbones -->
  <g transform="translate(44,54)" filter="url(#glow)">
    <g fill="url(#neon)" stroke="url(#neon)" stroke-width="13" stroke-linejoin="miter" stroke-linecap="butt">
      <line x1="6" y1="26" x2="106" y2="124"/>
      <line x1="106" y1="26" x2="6" y2="124"/>
      <path d="M2 20 l10 -6 6 10 -10 6z"/><path d="M110 20 l-10 -6 -6 10 10 6z"/>
      <path d="M2 130 l10 6 6 -10 -10 -6z"/><path d="M110 130 l-10 6 -6 -10 10 6z"/>
    </g>
    <path d="M18 44 L30 14 L56 4 L82 14 L94 44 L88 66 L104 74 L86 82 L80 100 L56 116 L32 100 L26 82 L8 74 L24 66 Z" fill="url(#neon)"/>
    <path d="M26 46 L48 54 L44 72 L26 64 Z" fill="#0B0E14"/>
    <path d="M86 46 L64 54 L68 72 L86 64 Z" fill="#0B0E14"/>
    <path d="M49 66 L63 66 L56 88 Z" fill="#0B0E14"/>
    <path d="M34 96 L40 108 L46 96 L52 108 L58 96 L64 108 L70 96 L74 100 L70 116 L40 116 L34 100 Z" fill="#0B0E14"/>
  </g>

  <!-- wordmark with metal umlaut -->
  <text x="176" y="174" font-size="116" font-weight="800" letter-spacing="-2"
        fill="url(#neon)" stroke="url(#neon)" stroke-width="3.5" filter="url(#glow)">xenv</text>
  <g fill="#FF12A6" filter="url(#glow)"><circle cx="262" cy="78" r="8.5"/><circle cx="284" cy="78" r="8.5"/></g>

  <!-- blinking cursor -->
  <rect x="518" y="88" width="46" height="92" rx="4" fill="#FF12A6" filter="url(#glow)">
    <animate attributeName="opacity" values="1;1;0.08;0.08" keyTimes="0;0.5;0.5;1" dur="1.06s" repeatCount="indefinite"/>
  </rect>

  <text x="178" y="210" font-size="18" letter-spacing="0.5" fill="#7C8698">encrypted env · one file per key · POSIX</text>
</svg>
